<?xml version="1.0" standalone="no"?>
<!DOCTYPE svg PUBLIC "-//W3C//DTD SVG 20010904//EN"
 "http://www.w3.org/TR/2001/REC-SVG-20010904/DTD/svg10.dtd">
<svg version="1.0" xmlns="http://www.w3.org/2000/svg"
 width="16.000000pt" height="16.000000pt" viewBox="0 0 16.000000 16.000000"
 preserveAspectRatio="xMidYMid meet">
<metadata>
Created by potrace 1.11, written by Peter Selinger 2001-2013
</metadata>
<g transform="translate(0.000000,16.000000) scale(0.006154,-0.006154)"
fill="#000000" stroke="none">
<path d="M0 2440 c0 -136 2 -160 15 -160 8 0 15 4 15 8 0 4 35 19 77 32 63 20
98 25 188 24 114 0 169 -12 265 -58 90 -42 171 -122 215 -210 30 -59 35 -80
35 -138 0 -110 -44 -170 -62 -85 -8 38 -30 79 -58 108 -37 38 -70 49 -142 50
-192 1 -379 50 -441 115 -28 30 -47 30 -80 1 -19 -16 -27 -32 -27 -55 0 -37 9
-40 35 -12 23 26 26 25 77 -9 24 -16 57 -33 73 -37 17 -4 32 -10 35 -14 9 -13
246 -50 321 -50 72 0 76 -1 106 -32 18 -20 37 -57 48 -93 21 -77 28 -89 50
-93 28 -6 64 19 90 62 l24 40 11 -29 c27 -70 -29 -155 -103 -155 -16 0 -28 -9
-36 -27 -45 -96 -61 -122 -106 -169 -57 -60 -136 -105 -214 -124 -75 -18 -215
-8 -274 19 -25 12 -50 21 -56 21 -5 0 -11 3 -13 8 -1 4 -18 17 -35 30 l-33 23
0 -41 0 -40 87 -42 88 -42 130 -1 130 0 94 47 c71 36 97 45 103 35 4 -6 8
-119 8 -250 0 -232 1 -239 26 -300 24 -60 45 -109 64 -152 5 -11 27 -65 50
-120 23 -55 45 -109 50 -120 30 -68 50 -115 50 -119 0 -2 14 -34 30 -69 17
-36 30 -67 30 -70 0 -9 -104 -74 -130 -82 -14 -4 -27 -11 -30 -14 -3 -4 -34
-16 -70 -28 l-65 -21 591 -1 591 -1 11 78 c7 42 12 91 12 107 0 51 9 56 70 39
106 -30 166 -36 340 -31 177 5 202 10 308 57 26 12 32 20 32 47 0 27 -3 31
-17 26 -10 -4 -20 -9 -23 -13 -8 -11 -110 -42 -185 -56 -83 -17 -213 -18 -304
-4 -80 13 -211 51 -211 62 0 4 -6 8 -14 8 -7 0 -26 10 -41 22 -27 21 -27 23
-21 102 6 76 17 146 52 340 l14 80 -44 40 c-24 23 -68 62 -97 88 -97 83 -119
105 -119 114 0 8 278 284 287 284 2 0 11 -6 18 -12 37 -33 51 -42 123 -76 76
-36 79 -36 202 -36 122 0 127 1 202 37 43 19 90 47 105 61 29 27 43 32 43 17
0 -5 7 -11 15 -15 13 -4 15 8 15 77 l-1 82 -19 -25 c-46 -59 -97 -100 -164
-134 -58 -29 -88 -38 -153 -43 -80 -6 -213 11 -213 27 0 5 -13 11 -30 15 -16
4 -30 10 -30 15 0 5 -9 11 -19 15 -35 11 -120 107 -151 170 -16 34 -30 66 -30
72 0 6 -19 13 -42 16 -63 8 -98 51 -98 117 0 42 5 55 31 82 34 36 24 35 404
61 185 13 250 10 282 -15 6 -5 61 -12 122 -15 l111 -6 0 25 c0 24 -4 26 -68
32 -38 4 -82 10 -98 15 -26 7 -21 10 46 25 100 22 120 33 120 66 l0 27 -47
-14 c-27 -8 -61 -18 -78 -23 -16 -5 -57 -12 -90 -16 -33 -4 -64 -10 -70 -15
-5 -4 -41 -10 -80 -13 -38 -3 -156 -13 -262 -23 -106 -9 -195 -14 -198 -11 -4
3 -1 41 4 84 15 106 53 164 166 252 10 7 96 46 165 73 24 10 79 14 175 14 158
0 182 -7 268 -77 l47 -39 0 170 0 171 -1300 0 -1300 0 0 -160z m545 75 c37 -9
85 -28 108 -42 55 -34 156 -139 163 -169 3 -13 10 -24 15 -24 5 0 9 -5 9 -10
0 -6 13 -39 30 -74 33 -71 49 -115 86 -231 14 -44 29 -89 33 -100 5 -11 18
-51 30 -90 30 -93 50 -116 106 -123 25 -2 45 -9 45 -14 0 -12 -41 -69 -60 -85
-8 -7 -35 -22 -59 -35 -60 -31 -176 -32 -238 -3 -57 27 -57 66 0 80 15 4 27
11 27 16 0 5 6 9 13 9 29 0 86 94 87 143 0 33 -22 89 -50 124 -14 18 -20 41
-20 74 0 26 -4 51 -10 54 -5 3 -10 16 -10 28 0 52 -83 170 -172 243 -23 19
-162 83 -213 98 -27 8 -90 18 -140 22 l-89 7 46 42 c34 31 61 45 109 56 85 21
79 21 154 4z m290 -1320 c54 -49 110 -101 124 -115 15 -14 74 -68 131 -120
149 -137 180 -167 180 -177 0 -4 -23 -33 -50 -63 -28 -30 -53 -63 -56 -72 -3
-10 -9 -18 -13 -18 -4 0 -35 26 -69 58 -62 59 -176 162 -265 242 -27 25 -67
61 -88 81 l-39 37 0 129 c0 71 3 132 6 136 3 3 14 -2 23 -11 10 -9 62 -57 116
-107z m809 -225 c15 -14 46 -41 67 -61 l38 -36 -125 -123 c-90 -87 -122 -126
-115 -133 15 -15 14 -86 -2 -102 -12 -11 -18 -9 -40 16 -35 41 -77 40 -108 -3
-13 -17 -41 -49 -61 -71 -30 -31 -42 -37 -60 -32 -67 21 -77 86 -27 181 23 45
74 101 207 230 97 95 181 169 187 166 5 -3 23 -18 39 -32z m-214 -482 c0 -6 7
-20 17 -30 20 -23 15 -28 -35 -35 -47 -6 -58 6 -32 37 11 13 20 27 20 32 0 4
7 8 15 8 8 0 15 -5 15 -12z"/>
<path d="M122 1834 c-42 -29 -19 -114 31 -114 42 0 65 81 31 114 -19 20 -34
20 -62 0z"/>
<path d="M426 1834 c-39 -39 -20 -114 29 -114 49 0 68 75 29 114 -20 20 -38
20 -58 0z"/>
<path d="M2035 1830 c-39 -43 -5 -118 48 -105 35 9 47 63 23 100 -20 30 -47
32 -71 5z"/>
<path d="M2337 1833 c-28 -32 -26 -77 6 -97 30 -21 60 -11 76 24 11 26 10 33
-9 60 -24 34 -49 38 -73 13z"/>
<path d="M86 1622 c-11 -18 15 -79 46 -112 42 -42 122 -80 171 -80 41 0 131
34 157 60 32 32 59 77 62 106 3 25 0 29 -22 29 -19 0 -29 -9 -42 -37 -10 -20
-34 -49 -54 -65 -32 -24 -47 -28 -99 -28 -52 0 -67 4 -98 28 -21 16 -46 46
-57 68 -19 37 -51 52 -64 31z"/>
<path d="M1993 1614 c-3 -9 -1 -19 4 -23 6 -3 14 -17 18 -31 19 -60 129 -130
205 -130 45 0 131 38 160 70 47 53 51 61 57 95 5 32 4 35 -21 35 -20 0 -29 -8
-40 -32 -13 -31 -31 -53 -72 -87 -20 -17 -151 -22 -162 -6 -4 6 -18 18 -32 27
-14 8 -34 34 -45 57 -15 30 -26 41 -43 41 -12 0 -25 -7 -29 -16z"/>
<path d="M2227 36 c-4 -15 -6 -31 -2 -34 10 -10 16 6 13 35 l-3 28 -8 -29z"/>
</g>
</svg>
